<svg  width="317" height="62" viewBox="0 0 160 30" fill="none" xmlns="http://www.w3.org/2000/svg">
<path d="M0.68 0.839999H25.96V7H16.68V30H10.48V7H0.68V0.839999ZM43.2006 30H37.2806C33.7206 30 28.5206 28 28.5206 22.04V9.52C28.5206 4.28 32.8806 0.839999 38.0006 0.839999H42.0806C47.3606 0.839999 51.2006 4.28 51.2006 9.48V22.16C51.2006 26.88 46.7606 30 43.2006 30ZM38.5206 25.2H41.0406C43.6006 25.2 45.2806 23.8 45.2806 21.24V9.92C45.2806 7.88 43.9206 6.16 41.0806 6.16H38.8406C35.9606 6.16 34.4406 7.96 34.4406 9.96V21.24C34.4406 23.44 35.5206 25.2 38.5206 25.2ZM74.6459 0.879999H80.6059V30H74.6459V8.48L68.3259 14.04L62.0859 8.52V30H55.3659V0.839999H62.0859L68.4059 7.92L74.6459 0.879999ZM99.4506 30H93.5306C89.9706 30 84.7706 28 84.7706 22.04V9.52C84.7706 4.28 89.1306 0.839999 94.2506 0.839999H98.3306C103.611 0.839999 107.451 4.28 107.451 9.48V22.16C107.451 26.88 103.011 30 99.4506 30ZM94.7706 25.2H97.2906C99.8506 25.2 101.531 23.8 101.531 21.24V9.92C101.531 7.88 100.171 6.16 97.3306 6.16H95.0906C92.2106 6.16 90.6906 7.96 90.6906 9.96V21.24C90.6906 23.44 91.7706 25.2 94.7706 25.2ZM131.656 5.48H118.416V12.6H129.336V16.56H118.416V25.6H131.656V29.96H111.816V0.879999H131.656V5.48ZM142.68 30H135.6V0.839999H142.68L153.28 21.04V0.839999H159.12V30H152.96L142.68 11.76V30Z" fill="#333333"/>
</svg>
